PathFileType	4	(X/Y/Z)	/Users/itak/Documents/Research/Walk-IL/dataset/trc/00299_00010.trc
DataRate	CameraRate	NumFrames	NumMarkers	Units	OrigDataRate	OrigDataStartFrame	OrigNumFrames
100.000000	100.000000	4	53	mm	100.000000	182	364
Frame#	Time	RPSI			LPSI			L3			STRN			T10			C7			CLAV			RBAK			LBAK			LSHO			LUPA			LAEL			LAOL			LWPS			LFRA			LIFD			LHPS			LHTS			RSHO			RUPA			RAEL			RAOL			RWTS			RWPS			RFRA			RIFD			RHTS			RHPS			RBHD			LFHD			RFHD			LBHD			LHIP			RHIP			RASI			LASI			LKNE			LTHI			LANK			LTIP			LTOE			LMT1			LMT5			LHEE			RKNE			RTHI			RTIP			RTOE			RMT1			RMT5			RHEE			LWTS			RANK			
		X1	Y1	Z1	X2	Y2	Z2	X3	Y3	Z3	X4	Y4	Z4	X5	Y5	Z5	X6	Y6	Z6	X7	Y7	Z7	X8	Y8	Z8	X9	Y9	Z9	X10	Y10	Z10	X11	Y11	Z11	X12	Y12	Z12	X13	Y13	Z13	X14	Y14	Z14	X15	Y15	Z15	X16	Y16	Z16	X17	Y17	Z17	X18	Y18	Z18	X19	Y19	Z19	X20	Y20	Z20	X21	Y21	Z21	X22	Y22	Z22	X23	Y23	Z23	X24	Y24	Z24	X25	Y25	Z25	X26	Y26	Z26	X27	Y27	Z27	X28	Y28	Z28	X29	Y29	Z29	X30	Y30	Z30	X31	Y31	Z31	X32	Y32	Z32	X33	Y33	Z33	X34	Y34	Z34	X35	Y35	Z35	X36	Y36	Z36	X37	Y37	Z37	X38	Y38	Z38	X39	Y39	Z39	X40	Y40	Z40	X41	Y41	Z41	X42	Y42	Z42	X43	Y43	Z43	X44	Y44	Z44	X45	Y45	Z45	X46	Y46	Z46	X47	Y47	Z47	X48	Y48	Z48	X49	Y49	Z49	X50	Y50	Z50	X51	Y51	Z51	X52	Y52	Z52	X53	Y53	Z53	

183	1.82	188.7289123535156	968.2704467773438	61.54352569580078	29.76111030578613	970.50634765625	-11.55975151062012	96.65383911132812	1045.6669921875	14.22323322296143	202.4867095947266	1233.361450195312	-209.9723510742188	79.17178344726562	1163.659545898438	22.66375541687012	82.64324188232422	1409.85107421875	-23.03574752807617	165.6118469238281	1329.7646484375	-153.3017578125	122.3346786499023	1272.949462890625	59.83736038208008	-17.24940872192383	1372.23095703125	-62.07871246337891	-15.90735149383545	1380.618408203125	-165.4322662353516	-89.21004486083984	1263.811889648438	-189.9905242919922	-88.27588653564453	1068.1015625	-237.5614776611328	-69.97958374023438	1037.582397460938	-157	-47.52326202392578	870.6497802734375	-354.9761962890625	-76.89260101318359	976.8397216796875	-282.315673828125	49.65324401855469	728.8055419921875	-426.1635437011719	-28.83148193359375	792.565185546875	-391.51025390625	28.28792762756348	816.1971435546875	-415.2092590332031	252.0081481933594	1388.671020507812	0.5183915495872498	303.0924377441406	1333.1435546875	44.31636428833008	320.3046569824219	1074.249755859375	112.8865432739258	232.4304504394531	1065.401489257812	78.57314300537109	337.3276062011719	835.7653198242188	43.58259963989258	364.9198913574219	844.71337890625	123.9987487792969	342.8529052734375	1007.087585449219	114.8112716674805	329.7035522460938	650.9403686523438	76.53720855712891	359.4334106445312	717.5858154296875	56.4661865234375	368.4785461425781	730.0221557617188	125.5383224487305	172.3292236328125	1570.149169921875	-17.96176719665527	111.1465911865234	1607.921630859375	-218.8404998779297	198.9804077148438	1609.262573242188	-188.0765686035156	34.02862167358398	1558.844604492188	-67.9422607421875	-30.50213813781738	932.8079833984375	-117.3276138305664	324.8428955078125	929.6722412109375	5.059858322143555	301.51171875	948.9685668945312	-129.7955169677734	67.73770141601562	945.3627319335938	-225.3896636962891	47.47244644165039	471.6121215820312	-142.621337890625	18.74892807006836	612.9490356445312	-159.2427673339844	8.597187042236328	51.15735244750977	3.609202861785889	23.97488975524902	248.2289733886719	-73.76692199707031	190.4092102050781	33.38629913330078	-114.9567642211914	169.9387359619141	26.4241771697998	-33.44049072265625	79.74993896484375	41.82806396484375	-96.22046661376953	22.26005935668945	46.7094612121582	77.48622894287109	402.1286010742188	504.8782653808594	-183.9242095947266	374.3256225585938	746.2966918945312	-97.21102905273438	422.9036254882812	391.2616577148438	-228.2480316162109	431.9591064453125	94.75652313232422	-425.3379211425781	393.1037292480469	73.26668548583984	-371.7295532226562	505.6280212402344	68.0706787109375	-339.4999084472656	436.2318420410156	43.26154708862305	-184.6850738525391	20.25270843505859	893.9705810546875	-348.1520690917969	484.4169311523438	57.7769775390625	-235.7397003173828	
184	1.83	195.1387481689453	966.8230590820312	55.58225250244141	35.57742309570312	969.470458984375	-16.07244873046875	102.3497161865234	1044.305419921875	9.282486915588379	206.4011535644531	1232.046508789062	-215.5425872802734	84.74659729003906	1162.550048828125	18.14846801757812	88.24172973632812	1408.676147460938	-27.74542427062988	170.06787109375	1328.5048828125	-158.6343078613281	128.2922210693359	1271.71142578125	54.77008438110352	-12.14744758605957	1371.063354492188	-66.19265747070312	-11.45613670349121	1379.483154296875	-169.4826507568359	-85.00764465332031	1262.732299804688	-193.6160888671875	-84.35787963867188	1067.147583007812	-241.83056640625	-65.92914581298828	1036.373901367188	-161.4115295410156	-43.54182434082031	870.5177001953125	-360.4168090820312	-72.96150970458984	976.1666259765625	-287.0143737792969	53.95302581787109	729.470703125	-432.7791137695312	-24.74181747436523	792.7128295898438	-397.5404052734375	32.2946891784668	816.6991577148438	-421.1809692382812	257.7295837402344	1387.210571289062	-5.437877178192139	308.99169921875	1331.631591796875	38.02333831787109	325.7559814453125	1072.908081054688	107.0852890014648	237.8054656982422	1064.156616210938	72.77005004882812	342.0749816894531	834.229248046875	38.11608505249023	369.8755493164062	843.2213134765625	118.4436111450195	348.1667175292969	1005.645324707031	108.9800415039062	333.9451904296875	649.4657592773438	71.40871429443359	363.8256225585938	715.9849243164062	51.16518020629883	373.0260009765625	728.48291015625	120.1534729003906	178.4150543212891	1568.294555664062	-22.98232078552246	116.2232666015625	1607.16845703125	-223.3329010009766	204.2302093505859	1608.109497070312	-193.0627593994141	39.7485466003418	1557.62548828125	-72.25809478759766	-25.75901031494141	932.1438598632812	-121.375732421875	330.786376953125	928.2882690429688	-2.065378427505493	306.2138366699219	947.7591552734375	-136.8048706054688	71.32215881347656	944.237548828125	-230.2764739990234	48.74336624145508	471.14013671875	-144.2203369140625	20.57961845397949	612.5497436523438	-161.6132659912109	8.751529693603516	51.375732421875	3.673340082168579	24.64091873168945	248.2676696777344	-74.42118835449219	190.3365631103516	33.386474609375	-114.974609375	169.8882751464844	26.47833251953125	-33.40545654296875	79.75390625	41.91213989257812	-96.20756530761719	22.33584403991699	47.13384246826172	77.60081481933594	407.2518615722656	503.1011352539062	-189.8159332275391	379.5980224609375	744.8978881835938	-103.770263671875	428.3144836425781	391.2655334472656	-237.0059204101562	436.2017517089844	100.3640365600586	-444.7593078613281	398.4725341796875	77.40875244140625	-390.8953857421875	511.6192321777344	71.50455474853516	-360.9810180664062	445.0329895019531	42.38809585571289	-205.4953765869141	24.15727043151855	893.9518432617188	-353.5627746582031	492.2889404296875	58.42766189575195	-257.0593566894531	
185	1.84	201.5652770996094	965.3956909179688	49.59449768066406	41.40895080566406	968.4995727539062	-20.59064483642578	108.1192474365234	1042.887817382812	4.238708972930908	210.3593292236328	1230.667236328125	-221.0859527587891	90.40920257568359	1161.359130859375	13.6230993270874	93.88114166259766	1407.408203125	-32.44566345214844	174.5837707519531	1327.18798828125	-163.9747924804688	134.2874603271484	1270.37060546875	49.69657135009766	-6.949313640594482	1369.81005859375	-70.26796722412109	-6.978164196014404	1378.257568359375	-173.5053558349609	-80.78076934814453	1261.545166015625	-197.1422119140625	-80.47872924804688	1066.072265625	-245.9280853271484	-61.90570449829102	1035.082763671875	-165.6454467773438	-39.65506362915039	870.1218872070312	-365.5186767578125	-69.1060791015625	975.3216552734375	-291.4906311035156	58.18415069580078	729.761962890625	-438.8209533691406	-20.7491569519043	792.5513916015625	-403.1291198730469	36.23276519775391	816.8484497070312	-426.7019653320312	263.4779052734375	1385.679565429688	-11.36991310119629	314.9165649414062	1330.016967773438	31.73702430725098	331.398681640625	1071.463256835938	101.1580429077148	243.3757171630859	1062.772583007812	66.83989715576172	347.0519714355469	832.5901489257812	32.37282943725586	375.1046142578125	841.6018676757812	112.6051254272461	353.7170104980469	1004.072692871094	102.9367980957031	338.4490661621094	647.871826171875	65.92978668212891	368.5108947753906	714.2894897460938	45.53972625732422	377.8942260742188	726.8251342773438	114.4531860351562	184.4681396484375	1566.436645507812	-28.02206420898438	121.2765502929688	1606.341552734375	-227.8443756103516	209.4413909912109	1606.925048828125	-198.06884765625	45.48340225219727	1556.345092773438	-76.57275390625	-20.99293327331543	931.4974975585938	-125.5051498413086	336.728759765625	926.8800659179688	-9.1505126953125	310.98828125	946.4735717773438	-143.7480163574219	75.06182861328125	943.1006469726562	-235.2421112060547	50.14118194580078	470.6233215332031	-145.9295349121094	22.52188110351562	612.1106567382812	-164.0865783691406	8.951032638549805	51.62496948242188	3.77199912071228	25.39118194580078	248.3023681640625	-75.12487030029297	190.2572174072266	33.38888168334961	-114.9953918457031	169.8854675292969	26.56059646606445	-33.32839965820312	79.77656555175781	42.00778961181641	-96.18288421630859	22.4383659362793	47.61389541625977	77.73709869384766	412.2667236328125	501.3210144042969	-195.7349395751953	384.9402465820312	743.5973510742188	-110.5104141235352	433.5108642578125	391.119140625	-245.2181701660156	440.3297424316406	105.5567016601562	-462.3095397949219	403.4215393066406	81.30892181396484	-408.3982543945312	516.9972534179688	74.66744232177734	-380.2231750488281	452.3653259277344	41.71862030029297	-224.5146331787109	27.96309089660645	893.6719970703125	-358.6412048339844	498.9938659667969	59.05973815917969	-276.3084716796875	
186	1.85	208.0279693603516	964.0169677734375	43.55515670776367	47.26429748535156	967.61767578125	-25.09200477600098	113.9673233032227	1041.445434570312	-0.9060755968093872	214.3754119873047	1229.246215820312	-226.6199493408203	96.17363739013672	1160.098388671875	9.048867225646973	99.56832122802734	1406.065795898438	-37.13875961303711	179.1706237792969	1325.835083007812	-169.3374786376953	140.3201141357422	1268.941528320312	44.60783386230469	-1.629551887512207	1368.4931640625	-74.30818176269531	-2.457613229751587	1376.965576171875	-177.5165863037109	-76.51939392089844	1260.275024414062	-200.5877838134766	-76.62549591064453	1064.89208984375	-249.8408508300781	-57.88385772705078	1033.731811523438	-169.6872253417969	-35.86798477172852	869.4713134765625	-370.260498046875	-65.32110595703125	974.3224487304688	-295.7305603027344	62.30141830444336	729.6646118164062	-444.2933959960938	-16.87161254882812	792.089599609375	-408.256103515625	40.07360076904297	816.6422729492188	-431.7762451171875	269.2496643066406	1384.09814453125	-17.27493667602539	320.8624267578125	1328.325439453125	25.4637508392334	337.2378540039062	1069.922729492188	95.07797241210938	249.1330871582031	1061.281372070312	60.81050491333008	352.2545776367188	830.8612670898438	26.34646797180176	380.6142272949219	839.8804321289062	106.4678726196289	359.5069580078125	1002.390991210938	96.66813659667969	343.2362670898438	646.177734375	60.11764907836914	373.4764709472656	712.5171508789062	39.57968902587891	383.1043090820312	725.0746459960938	108.4313659667969	190.4857940673828	1564.608520507812	-33.08172607421875	126.3075561523438	1605.4560546875	-232.3800964355469	214.6154937744141	1605.721923828125	-203.1007080078125	51.23841094970703	1555.03759765625	-80.88383483886719	-16.19636535644531	930.8773193359375	-129.6840972900391	342.6777648925781	925.471435546875	-16.21490287780762	315.8284301757812	945.1273193359375	-150.6377105712891	78.96780395507812	941.98193359375	-240.2800598144531	51.71434783935547	470.0700378417969	-147.7854614257812	24.63991737365723	611.6288452148438	-166.6819458007812	9.202559471130371	51.91629791259766	3.908833265304565	26.25238609313965	248.3364410400391	-75.89102935791016	190.1751861572266	33.3896598815918	-115.0248413085938	169.9453887939453	26.67068290710449	-33.21625900268555	79.82470703125	42.11499404907227	-96.1448974609375	22.59406661987305	48.16624450683594	77.90035247802734	417.1154174804688	499.5725708007812	-201.7205657958984	390.3233032226562	742.3760986328125	-117.4303131103516	438.468505859375	390.7667541503906	-253.0055694580078	444.4080200195312	110.043815612793	-477.9205017089844	408.0238647460938	84.67999267578125	-424.1368103027344	521.8653564453125	77.35008239746094	-397.1170959472656	458.3666687011719	41.06858444213867	-241.5476531982422	31.67998695373535	893.1396484375	-363.3879089355469	504.6375122070312	59.48952484130859	-293.3337097167969	
